<svg id="visual" viewBox="0 0 900 600" width="900" height="600" xmlns="http://www.w3.org/2000/svg" xmlns:xlink="http://www.w3.org/1999/xlink" version="1.1"><g stroke-width="1" stroke-linejoin="bevel"><path d="M425 321L381 289L367 397Z" fill="#00101c" stroke="#00101c"></path><path d="M367 397L430 393L425 321Z" fill="#112e42" stroke="#112e42"></path><path d="M381 289L303 308L367 397Z" fill="#19435d" stroke="#19435d"></path><path d="M303 308L296 383L367 397Z" fill="#00101c" stroke="#00101c"></path><path d="M296 383L368 456L367 397Z" fill="#15384f" stroke="#15384f"></path><path d="M367 397L368 456L430 393Z" fill="#277297" stroke="#277297"></path><path d="M368 456L452 427L430 393Z" fill="#1d4e6b" stroke="#1d4e6b"></path><path d="M430 393L534 385L425 321Z" fill="#0c2435" stroke="#0c2435"></path><path d="M426 206L358 224L381 289Z" fill="#1d4e6b" stroke="#1d4e6b"></path><path d="M381 289L323 227L303 308Z" fill="#081a28" stroke="#081a28"></path><path d="M358 224L323 227L381 289Z" fill="#246688" stroke="#246688"></path><path d="M537 293L426 206L425 321Z" fill="#15384f" stroke="#15384f"></path><path d="M425 321L426 206L381 289Z" fill="#246688" stroke="#246688"></path><path d="M358 224L378 163L323 227Z" fill="#0c2435" stroke="#0c2435"></path><path d="M232 448L275 466L296 383Z" fill="#19435d" stroke="#19435d"></path><path d="M296 383L275 466L368 456Z" fill="#19435d" stroke="#19435d"></path><path d="M323 227L231 277L303 308Z" fill="#0c2435" stroke="#0c2435"></path><path d="M303 308L207 366L296 383Z" fill="#1d4e6b" stroke="#1d4e6b"></path><path d="M452 427L534 385L430 393Z" fill="#277297" stroke="#277297"></path><path d="M534 385L537 293L425 321Z" fill="#0c2435" stroke="#0c2435"></path><path d="M231 277L207 366L303 308Z" fill="#112e42" stroke="#112e42"></path><path d="M392 521L431 504L368 456Z" fill="#19435d" stroke="#19435d"></path><path d="M368 456L431 504L452 427Z" fill="#00101c" stroke="#00101c"></path><path d="M452 427L523 473L534 385Z" fill="#081a28" stroke="#081a28"></path><path d="M207 366L232 448L296 383Z" fill="#112e42" stroke="#112e42"></path><path d="M315 548L368 456L275 466Z" fill="#246688" stroke="#246688"></path><path d="M315 548L392 521L368 456Z" fill="#297ea6" stroke="#297ea6"></path><path d="M463 174L378 163L426 206Z" fill="#277297" stroke="#277297"></path><path d="M426 206L378 163L358 224Z" fill="#297ea6" stroke="#297ea6"></path><path d="M323 227L236 215L231 277Z" fill="#297ea6" stroke="#297ea6"></path><path d="M296 150L236 215L323 227Z" fill="#19435d" stroke="#19435d"></path><path d="M131 391L174 428L207 366Z" fill="#081a28" stroke="#081a28"></path><path d="M532 223L463 174L426 206Z" fill="#15384f" stroke="#15384f"></path><path d="M431 504L523 473L452 427Z" fill="#081a28" stroke="#081a28"></path><path d="M530 539L523 473L431 504Z" fill="#112e42" stroke="#112e42"></path><path d="M537 293L532 223L426 206Z" fill="#205a7a" stroke="#205a7a"></path><path d="M378 163L296 150L323 227Z" fill="#277297" stroke="#277297"></path><path d="M319 94L296 150L378 163Z" fill="#205a7a" stroke="#205a7a"></path><path d="M230 519L315 548L275 466Z" fill="#00101c" stroke="#00101c"></path><path d="M140 321L207 366L231 277Z" fill="#112e42" stroke="#112e42"></path><path d="M207 366L174 428L232 448Z" fill="#297ea6" stroke="#297ea6"></path><path d="M232 448L230 519L275 466Z" fill="#00101c" stroke="#00101c"></path><path d="M610 377L597 314L534 385Z" fill="#081a28" stroke="#081a28"></path><path d="M534 385L597 314L537 293Z" fill="#0c2435" stroke="#0c2435"></path><path d="M537 293L576 206L532 223Z" fill="#277297" stroke="#277297"></path><path d="M174 428L230 519L232 448Z" fill="#15384f" stroke="#15384f"></path><path d="M296 150L225 166L236 215Z" fill="#297ea6" stroke="#297ea6"></path><path d="M161 242L140 321L231 277Z" fill="#0c2435" stroke="#0c2435"></path><path d="M161 242L231 277L236 215Z" fill="#0c2435" stroke="#0c2435"></path><path d="M225 166L161 242L236 215Z" fill="#246688" stroke="#246688"></path><path d="M619 429L610 377L534 385Z" fill="#205a7a" stroke="#205a7a"></path><path d="M594 170L576 206L651 230Z" fill="#19435d" stroke="#19435d"></path><path d="M597 314L576 206L537 293Z" fill="#277297" stroke="#277297"></path><path d="M532 223L544 150L463 174Z" fill="#205a7a" stroke="#205a7a"></path><path d="M140 321L131 391L207 366Z" fill="#00101c" stroke="#00101c"></path><path d="M174 428L173 541L230 519Z" fill="#246688" stroke="#246688"></path><path d="M450 600L431 504L392 521Z" fill="#277297" stroke="#277297"></path><path d="M450 600L530 539L431 504Z" fill="#112e42" stroke="#112e42"></path><path d="M523 473L619 429L534 385Z" fill="#081a28" stroke="#081a28"></path><path d="M521 61L425 95L463 174Z" fill="#15384f" stroke="#15384f"></path><path d="M463 174L425 95L378 163Z" fill="#205a7a" stroke="#205a7a"></path><path d="M296 150L231 74L225 166Z" fill="#0c2435" stroke="#0c2435"></path><path d="M373 67L319 94L378 163Z" fill="#297ea6" stroke="#297ea6"></path><path d="M576 206L544 150L532 223Z" fill="#297ea6" stroke="#297ea6"></path><path d="M279 600L395 600L315 548Z" fill="#246688" stroke="#246688"></path><path d="M315 548L395 600L392 521Z" fill="#081a28" stroke="#081a28"></path><path d="M607 539L619 429L523 473Z" fill="#15384f" stroke="#15384f"></path><path d="M395 600L450 600L392 521Z" fill="#297ea6" stroke="#297ea6"></path><path d="M230 519L279 600L315 548Z" fill="#00101c" stroke="#00101c"></path><path d="M236 600L279 600L230 519Z" fill="#205a7a" stroke="#205a7a"></path><path d="M425 95L373 67L378 163Z" fill="#297ea6" stroke="#297ea6"></path><path d="M374 0L373 67L450 0Z" fill="#19435d" stroke="#19435d"></path><path d="M576 206L594 170L544 150Z" fill="#277297" stroke="#277297"></path><path d="M544 150L521 61L463 174Z" fill="#15384f" stroke="#15384f"></path><path d="M651 230L576 206L597 314Z" fill="#081a28" stroke="#081a28"></path><path d="M655 308L597 314L610 377Z" fill="#277297" stroke="#277297"></path><path d="M689 398L655 308L610 377Z" fill="#246688" stroke="#246688"></path><path d="M76 506L173 541L174 428Z" fill="#081a28" stroke="#081a28"></path><path d="M173 541L236 600L230 519Z" fill="#205a7a" stroke="#205a7a"></path><path d="M655 308L651 230L597 314Z" fill="#0c2435" stroke="#0c2435"></path><path d="M652 502L662 432L619 429Z" fill="#297ea6" stroke="#297ea6"></path><path d="M619 429L662 432L610 377Z" fill="#205a7a" stroke="#205a7a"></path><path d="M726 239L683 151L651 230Z" fill="#00101c" stroke="#00101c"></path><path d="M231 74L135 163L225 166Z" fill="#00101c" stroke="#00101c"></path><path d="M225 166L135 163L161 242Z" fill="#277297" stroke="#277297"></path><path d="M161 242L74 307L140 321Z" fill="#081a28" stroke="#081a28"></path><path d="M140 321L74 307L131 391Z" fill="#15384f" stroke="#15384f"></path><path d="M231 74L296 150L319 94Z" fill="#297ea6" stroke="#297ea6"></path><path d="M90 221L74 307L161 242Z" fill="#19435d" stroke="#19435d"></path><path d="M131 391L74 452L174 428Z" fill="#081a28" stroke="#081a28"></path><path d="M530 539L607 539L523 473Z" fill="#0c2435" stroke="#0c2435"></path><path d="M588 600L607 539L530 539Z" fill="#112e42" stroke="#112e42"></path><path d="M305 0L231 74L319 94Z" fill="#205a7a" stroke="#205a7a"></path><path d="M450 600L544 600L530 539Z" fill="#112e42" stroke="#112e42"></path><path d="M74 307L70 398L131 391Z" fill="#00101c" stroke="#00101c"></path><path d="M135 163L90 221L161 242Z" fill="#277297" stroke="#277297"></path><path d="M592 98L544 150L594 170Z" fill="#205a7a" stroke="#205a7a"></path><path d="M592 98L521 61L544 150Z" fill="#19435d" stroke="#19435d"></path><path d="M761 444L689 398L662 432Z" fill="#0c2435" stroke="#0c2435"></path><path d="M662 432L689 398L610 377Z" fill="#1d4e6b" stroke="#1d4e6b"></path><path d="M680 600L652 502L607 539Z" fill="#277297" stroke="#277297"></path><path d="M607 539L652 502L619 429Z" fill="#00101c" stroke="#00101c"></path><path d="M70 398L74 452L131 391Z" fill="#297ea6" stroke="#297ea6"></path><path d="M173 541L164 600L236 600Z" fill="#00101c" stroke="#00101c"></path><path d="M683 151L592 98L594 170Z" fill="#205a7a" stroke="#205a7a"></path><path d="M88 600L164 600L173 541Z" fill="#297ea6" stroke="#297ea6"></path><path d="M544 600L588 600L530 539Z" fill="#081a28" stroke="#081a28"></path><path d="M0 439L76 506L74 452Z" fill="#19435d" stroke="#19435d"></path><path d="M74 452L76 506L174 428Z" fill="#277297" stroke="#277297"></path><path d="M450 0L373 67L425 95Z" fill="#0c2435" stroke="#0c2435"></path><path d="M373 67L305 0L319 94Z" fill="#297ea6" stroke="#297ea6"></path><path d="M374 0L305 0L373 67Z" fill="#15384f" stroke="#15384f"></path><path d="M148 58L90 133L135 163Z" fill="#1d4e6b" stroke="#1d4e6b"></path><path d="M532 0L450 0L521 61Z" fill="#0c2435" stroke="#0c2435"></path><path d="M521 61L450 0L425 95Z" fill="#081a28" stroke="#081a28"></path><path d="M148 58L135 163L231 74Z" fill="#112e42" stroke="#112e42"></path><path d="M135 163L90 133L90 221Z" fill="#277297" stroke="#277297"></path><path d="M0 293L0 350L74 307Z" fill="#15384f" stroke="#15384f"></path><path d="M651 230L683 151L594 170Z" fill="#081a28" stroke="#081a28"></path><path d="M590 0L532 0L521 61Z" fill="#0c2435" stroke="#0c2435"></path><path d="M726 239L651 230L655 308Z" fill="#19435d" stroke="#19435d"></path><path d="M213 0L148 58L231 74Z" fill="#297ea6" stroke="#297ea6"></path><path d="M740 280L726 239L655 308Z" fill="#081a28" stroke="#081a28"></path><path d="M766 352L655 308L689 398Z" fill="#246688" stroke="#246688"></path><path d="M766 352L740 280L655 308Z" fill="#19435d" stroke="#19435d"></path><path d="M74 307L0 350L70 398Z" fill="#112e42" stroke="#112e42"></path><path d="M70 398L0 439L74 452Z" fill="#00101c" stroke="#00101c"></path><path d="M0 293L74 307L0 249Z" fill="#1d4e6b" stroke="#1d4e6b"></path><path d="M590 0L521 61L592 98Z" fill="#19435d" stroke="#19435d"></path><path d="M0 249L74 307L90 221Z" fill="#112e42" stroke="#112e42"></path><path d="M305 0L213 0L231 74Z" fill="#19435d" stroke="#19435d"></path><path d="M76 506L88 600L173 541Z" fill="#19435d" stroke="#19435d"></path><path d="M0 534L88 600L76 506Z" fill="#081a28" stroke="#081a28"></path><path d="M0 162L0 249L90 221Z" fill="#1d4e6b" stroke="#1d4e6b"></path><path d="M0 162L90 221L90 133Z" fill="#112e42" stroke="#112e42"></path><path d="M0 350L0 439L70 398Z" fill="#081a28" stroke="#081a28"></path><path d="M761 444L766 352L689 398Z" fill="#112e42" stroke="#112e42"></path><path d="M769 125L683 151L726 239Z" fill="#00101c" stroke="#00101c"></path><path d="M761 444L662 432L652 502Z" fill="#15384f" stroke="#15384f"></path><path d="M128 0L75 88L148 58Z" fill="#205a7a" stroke="#205a7a"></path><path d="M148 58L75 88L90 133Z" fill="#1d4e6b" stroke="#1d4e6b"></path><path d="M588 600L680 600L607 539Z" fill="#112e42" stroke="#112e42"></path><path d="M726 546L761 444L652 502Z" fill="#0c2435" stroke="#0c2435"></path><path d="M687 0L590 0L592 98Z" fill="#297ea6" stroke="#297ea6"></path><path d="M680 600L726 546L652 502Z" fill="#112e42" stroke="#112e42"></path><path d="M769 125L699 83L683 151Z" fill="#081a28" stroke="#081a28"></path><path d="M683 151L699 83L592 98Z" fill="#112e42" stroke="#112e42"></path><path d="M769 125L726 239L822 229Z" fill="#246688" stroke="#246688"></path><path d="M75 88L0 162L90 133Z" fill="#112e42" stroke="#112e42"></path><path d="M0 439L0 534L76 506Z" fill="#15384f" stroke="#15384f"></path><path d="M213 0L128 0L148 58Z" fill="#081a28" stroke="#081a28"></path><path d="M75 88L0 64L0 162Z" fill="#00101c" stroke="#00101c"></path><path d="M761 444L821 393L766 352Z" fill="#081a28" stroke="#081a28"></path><path d="M844 298L822 229L740 280Z" fill="#0c2435" stroke="#0c2435"></path><path d="M848 470L821 393L761 444Z" fill="#246688" stroke="#246688"></path><path d="M822 229L726 239L740 280Z" fill="#0c2435" stroke="#0c2435"></path><path d="M699 83L687 0L592 98Z" fill="#00101c" stroke="#00101c"></path><path d="M0 534L0 600L88 600Z" fill="#112e42" stroke="#112e42"></path><path d="M844 298L740 280L766 352Z" fill="#081a28" stroke="#081a28"></path><path d="M680 600L760 600L726 546Z" fill="#277297" stroke="#277297"></path><path d="M726 546L804 546L761 444Z" fill="#15384f" stroke="#15384f"></path><path d="M749 0L687 0L699 83Z" fill="#0c2435" stroke="#0c2435"></path><path d="M53 0L0 64L75 88Z" fill="#277297" stroke="#277297"></path><path d="M128 0L53 0L75 88Z" fill="#112e42" stroke="#112e42"></path><path d="M821 393L844 298L766 352Z" fill="#19435d" stroke="#19435d"></path><path d="M842 87L772 88L769 125Z" fill="#246688" stroke="#246688"></path><path d="M769 125L772 88L699 83Z" fill="#205a7a" stroke="#205a7a"></path><path d="M760 600L804 546L726 546Z" fill="#112e42" stroke="#112e42"></path><path d="M821 393L900 363L844 298Z" fill="#277297" stroke="#277297"></path><path d="M804 546L848 470L761 444Z" fill="#19435d" stroke="#19435d"></path><path d="M900 239L832 161L822 229Z" fill="#00101c" stroke="#00101c"></path><path d="M822 229L832 161L769 125Z" fill="#00101c" stroke="#00101c"></path><path d="M843 0L749 0L772 88Z" fill="#277297" stroke="#277297"></path><path d="M772 88L749 0L699 83Z" fill="#297ea6" stroke="#297ea6"></path><path d="M53 0L0 0L0 64Z" fill="#205a7a" stroke="#205a7a"></path><path d="M760 600L832 600L804 546Z" fill="#00101c" stroke="#00101c"></path><path d="M804 546L900 533L848 470Z" fill="#1d4e6b" stroke="#1d4e6b"></path><path d="M900 439L900 363L821 393Z" fill="#15384f" stroke="#15384f"></path><path d="M844 298L900 239L822 229Z" fill="#0c2435" stroke="#0c2435"></path><path d="M900 439L821 393L848 470Z" fill="#15384f" stroke="#15384f"></path><path d="M900 363L900 323L844 298Z" fill="#277297" stroke="#277297"></path><path d="M900 125L842 87L832 161Z" fill="#1d4e6b" stroke="#1d4e6b"></path><path d="M832 161L842 87L769 125Z" fill="#19435d" stroke="#19435d"></path><path d="M900 533L900 439L848 470Z" fill="#1d4e6b" stroke="#1d4e6b"></path><path d="M900 323L900 239L844 298Z" fill="#112e42" stroke="#112e42"></path><path d="M832 600L900 533L804 546Z" fill="#15384f" stroke="#15384f"></path><path d="M900 239L900 125L832 161Z" fill="#00101c" stroke="#00101c"></path><path d="M842 87L843 0L772 88Z" fill="#081a28" stroke="#081a28"></path><path d="M900 58L843 0L842 87Z" fill="#246688" stroke="#246688"></path><path d="M832 600L900 600L900 533Z" fill="#112e42" stroke="#112e42"></path><path d="M900 125L900 58L842 87Z" fill="#0c2435" stroke="#0c2435"></path><path d="M900 58L900 0L843 0Z" fill="#0c2435" stroke="#0c2435"></path></g></svg>